<svg width="261" height="40" viewBox="0 0 261 40" fill="none" xmlns="http://www.w3.org/2000/svg">
<path fill-rule="evenodd" clip-rule="evenodd" d="M14.3892 0.495742C13.8714 1.06958 13.2586 1.8785 12.9256 2.42786C12.1654 3.68177 11.5809 5.44479 11.4889 6.76094L11.4605 7.16792L11.8768 7.45471C12.3931 7.81036 13.1251 8.49973 13.5266 9.0082C13.8993 9.48034 14.4266 10.3382 14.6354 10.8124C14.7211 11.0068 14.8034 11.1651 14.8184 11.1642C14.8335 11.1633 14.9197 11.0009 15.01 10.8033C15.5539 9.61378 16.5653 8.35647 17.5909 7.5949C17.8008 7.43906 18.0306 7.26846 18.1015 7.21579L18.2305 7.12004L18.1814 6.68912C18.0807 5.80714 18.0296 5.55122 17.8128 4.84577C17.2847 3.127 16.5508 1.9033 15.0459 0.232406L14.8365 0L14.3892 0.495742ZM5.31984 6.52188C5.31984 6.60102 5.35166 6.87576 5.39053 7.13234C5.57413 8.34369 6.00263 9.41044 6.75381 10.5264C7.70496 11.9393 9.03442 13.074 10.6727 13.8712C13.174 15.0882 15.7245 15.2198 18.1282 14.256C20.2148 13.4193 22.1207 11.818 23.1924 10.0008C23.805 8.9621 24.1948 7.80787 24.303 6.71239L24.3374 6.36378L23.4788 6.3916C22.5854 6.42052 22.132 6.48377 21.3727 6.68539C19.7965 7.10395 18.624 7.78776 17.4348 8.98211C16.7467 9.67315 16.1606 10.4653 15.6622 11.3777C15.2194 12.1883 14.831 13.3601 14.8137 13.937C14.8072 14.1535 14.8022 14.1687 14.7882 14.0147C14.7248 13.3179 14.4446 12.383 14.0531 11.5624C13.5426 10.4923 12.9474 9.67813 12.0304 8.79581C10.8429 7.65327 9.82288 7.09107 8.15664 6.66092C7.33012 6.44752 6.8091 6.37829 6.02768 6.3781L5.31984 6.37791V6.52188ZM25.0195 10.1731C24.239 11.229 23.4116 12.0792 21.9482 13.3289C20.8006 14.3089 19.4088 15.0949 17.5572 15.8087C16.9326 16.0495 15.9086 16.3847 15.7976 16.3847C15.7444 16.3847 15.7336 18.3489 15.7336 28.0184V39.6523L16.402 38.9469C17.3678 37.9276 18.2945 37.0629 19.9286 35.6561C20.4791 35.1821 21.1919 34.568 21.5125 34.2915C25.4344 30.9089 26.9636 29.2058 28.0902 26.966C28.962 25.2326 29.4394 23.5848 29.6534 21.5702C29.7091 21.0456 29.6934 19.1433 29.6289 18.6111C29.2973 15.874 28.1887 13.2508 26.4317 11.0461C26.0718 10.5945 25.3839 9.80765 25.3356 9.79237C25.3201 9.78749 25.1779 9.9588 25.0195 10.1731ZM3.84608 10.4117C2.82035 11.5731 2.15522 12.5521 1.52843 13.8231C0.554051 15.799 0.104533 17.5711 0.010234 19.8081C-0.0954388 22.3152 0.623492 25.265 1.87731 27.4687C3.18042 29.7591 4.49759 31.1257 9.52732 35.4055C11.3877 36.9885 12.4876 37.9943 13.562 39.0948L14.1979 39.7461V32.9324V26.1187L13.1061 25.2296C12.5057 24.7406 11.6041 24.0092 11.1026 23.6042C10.6011 23.1992 9.71567 22.4819 9.135 22.0102C7.70184 20.8459 6.88804 20.1929 6.81178 20.1458C6.75938 20.1135 6.75276 20.3327 6.77406 21.3937C6.80171 22.7699 6.80881 22.8497 6.95873 23.4644C7.09079 24.0057 7.29441 24.4712 7.60236 24.9355C7.85047 25.3097 8.74019 26.2216 10.24 27.639L10.7691 28.1391L10.8207 28.6657C10.876 29.2317 10.9084 31.8018 10.8602 31.8018C10.8108 31.8018 8.21005 29.5615 7.58168 28.9778C6.48401 27.9579 5.5045 26.7623 4.87459 25.6733C4.67683 25.3314 4.29085 24.4455 4.1236 23.9496C3.99845 23.5785 3.85218 22.9963 3.70936 22.3011C3.49806 21.2725 3.61967 18.8959 3.94907 17.6148C4.14909 16.8371 4.28787 16.4635 4.6286 15.7862C5.02067 15.0067 4.98031 15.038 5.2826 15.2787C6.39499 16.1644 6.99813 16.5662 8.34318 17.3176C9.76007 18.109 10.1189 18.3789 10.4739 18.9197C10.722 19.2979 10.8168 19.5315 10.8883 19.941L10.9423 20.2505L11.5503 20.6739C11.8848 20.9067 12.4391 21.2931 12.7822 21.5325C13.1253 21.7719 13.5875 22.0935 13.8091 22.2473L14.2122 22.5267L14.183 20.9519C14.1393 18.5982 14.0364 18.1001 13.3886 17.1072C12.8278 16.2475 12.2789 15.8014 10.9106 15.0929C9.85316 14.5454 8.91252 14.0186 8.5038 13.745C7.46372 13.0489 5.6023 11.3213 4.60292 10.1245C4.48746 9.98623 4.37699 9.8731 4.35741 9.8731C4.33783 9.8731 4.10772 10.1155 3.84608 10.4117ZM24.811 15.2954C25.6594 16.7415 26.0514 18.4407 26.051 20.6699C26.0506 22.8789 25.5461 24.6022 24.3973 26.3186C24.1775 26.647 23.8508 27.1048 23.6714 27.3358C23.359 27.7383 21.9277 29.2071 21.4157 29.6507C20.203 30.7015 19.2229 31.5406 19.1967 31.5505C19.1792 31.557 19.1587 28.6699 19.1513 25.1346L19.1377 18.7068L19.5748 18.4953C20.0356 18.2724 21.0496 17.6566 22.0922 16.9667C22.7852 16.5081 23.6791 15.8066 24.2277 15.2908C24.4257 15.1047 24.5921 14.9515 24.5975 14.9504C24.6029 14.9492 24.699 15.1045 24.811 15.2954Z" fill="#00B207"/>
<path d="M58.1835 15.033C57.6075 13.9237 56.8075 13.0917 55.7835 12.537C54.7595 11.961 53.5755 11.673 52.2315 11.673C50.7595 11.673 49.4475 12.0037 48.2955 12.665C47.1435 13.3264 46.2368 14.265 45.5755 15.481C44.9355 16.697 44.6155 18.105 44.6155 19.705C44.6155 21.305 44.9355 22.7237 45.5755 23.961C46.2368 25.177 47.1435 26.1157 48.2955 26.777C49.4475 27.4384 50.7595 27.769 52.2315 27.769C54.2155 27.769 55.8262 27.2144 57.0635 26.105C58.3008 24.9957 59.0582 23.4917 59.3355 21.593H50.9835V18.681H63.2395V21.529C63.0048 23.257 62.3862 24.8464 61.3835 26.297C60.4022 27.7477 59.1115 28.9104 57.5115 29.785C55.9328 30.6384 54.1728 31.065 52.2315 31.065C50.1408 31.065 48.2315 30.585 46.5035 29.625C44.7755 28.6437 43.3995 27.289 42.3755 25.561C41.3728 23.833 40.8715 21.881 40.8715 19.705C40.8715 17.529 41.3728 15.577 42.3755 13.849C43.3995 12.121 44.7755 10.777 46.5035 9.81705C48.2528 8.83571 50.1622 8.34505 52.2315 8.34505C54.5995 8.34505 56.7008 8.93171 58.5355 10.105C60.3915 11.257 61.7355 12.8997 62.5675 15.033H58.1835ZM64.6615 21.977C64.6615 20.2064 65.0242 18.6384 65.7495 17.273C66.4962 15.9077 67.4988 14.8517 68.7575 14.105C70.0375 13.337 71.4455 12.953 72.9815 12.953C74.3682 12.953 75.5735 13.2304 76.5975 13.785C77.6428 14.3184 78.4748 14.9904 79.0935 15.801V13.241H82.7735V30.873H79.0935V28.249C78.4748 29.081 77.6322 29.7744 76.5655 30.329C75.4988 30.8837 74.2828 31.161 72.9175 31.161C71.4028 31.161 70.0162 30.777 68.7575 30.009C67.4988 29.2197 66.4962 28.1317 65.7495 26.745C65.0242 25.337 64.6615 23.7477 64.6615 21.977ZM79.0935 22.041C79.0935 20.825 78.8375 19.769 78.3255 18.873C77.8348 17.977 77.1842 17.2944 76.3735 16.825C75.5628 16.3557 74.6882 16.121 73.7495 16.121C72.8108 16.121 71.9362 16.3557 71.1255 16.825C70.3148 17.273 69.6535 17.945 69.1415 18.841C68.6508 19.7157 68.4055 20.761 68.4055 21.977C68.4055 23.193 68.6508 24.2597 69.1415 25.177C69.6535 26.0944 70.3148 26.7984 71.1255 27.289C71.9575 27.7584 72.8322 27.993 73.7495 27.993C74.6882 27.993 75.5628 27.7584 76.3735 27.289C77.1842 26.8197 77.8348 26.137 78.3255 25.241C78.8375 24.3237 79.0935 23.257 79.0935 22.041ZM95.501 12.953C96.8877 12.953 98.125 13.241 99.213 13.817C100.322 14.393 101.186 15.2464 101.805 16.377C102.424 17.5077 102.733 18.873 102.733 20.473V30.873H99.117V21.017C99.117 19.4384 98.7223 18.233 97.933 17.401C97.1437 16.5477 96.0663 16.121 94.701 16.121C93.3357 16.121 92.2477 16.5477 91.437 17.401C90.6477 18.233 90.253 19.4384 90.253 21.017V30.873H86.605V13.241H90.253V15.257C90.8503 14.5317 91.6077 13.9664 92.525 13.561C93.4637 13.1557 94.4557 12.953 95.501 12.953ZM122.586 21.625C122.586 22.2864 122.544 22.8837 122.458 23.417H108.986C109.093 24.825 109.616 25.9557 110.554 26.809C111.493 27.6624 112.645 28.089 114.01 28.089C115.973 28.089 117.36 27.2677 118.17 25.625H122.106C121.573 27.2464 120.602 28.5797 119.194 29.625C117.808 30.649 116.08 31.161 114.01 31.161C112.325 31.161 110.81 30.7877 109.466 30.041C108.144 29.273 107.098 28.2064 106.33 26.841C105.584 25.4544 105.21 23.8544 105.21 22.041C105.21 20.2277 105.573 18.6384 106.298 17.273C107.045 15.8864 108.08 14.8197 109.402 14.073C110.746 13.3264 112.282 12.953 114.01 12.953C115.674 12.953 117.157 13.3157 118.458 14.041C119.76 14.7664 120.773 15.7904 121.498 17.113C122.224 18.4144 122.586 19.9184 122.586 21.625ZM118.778 20.473C118.757 19.129 118.277 18.0517 117.338 17.241C116.4 16.4304 115.237 16.025 113.85 16.025C112.592 16.025 111.514 16.4304 110.618 17.241C109.722 18.0304 109.189 19.1077 109.018 20.473H118.778ZM131.616 31.161C130.23 31.161 128.982 30.9157 127.872 30.425C126.784 29.913 125.92 29.2304 125.28 28.377C124.64 27.5024 124.299 26.5317 124.256 25.465H128.032C128.096 26.2117 128.448 26.841 129.088 27.353C129.75 27.8437 130.571 28.089 131.552 28.089C132.576 28.089 133.366 27.897 133.92 27.513C134.496 27.1077 134.784 26.5957 134.784 25.977C134.784 25.3157 134.464 24.825 133.824 24.505C133.206 24.185 132.214 23.833 130.848 23.449C129.526 23.0864 128.448 22.7344 127.616 22.393C126.784 22.0517 126.059 21.529 125.44 20.825C124.843 20.121 124.544 19.193 124.544 18.041C124.544 17.1024 124.822 16.249 125.376 15.481C125.931 14.6917 126.72 14.073 127.744 13.625C128.79 13.177 129.984 12.953 131.328 12.953C133.334 12.953 134.944 13.465 136.16 14.489C137.398 15.4917 138.059 16.8677 138.144 18.617H134.496C134.432 17.8277 134.112 17.1984 133.536 16.729C132.96 16.2597 132.182 16.025 131.2 16.025C130.24 16.025 129.504 16.2064 128.992 16.569C128.48 16.9317 128.224 17.4117 128.224 18.009C128.224 18.4784 128.395 18.873 128.736 19.193C129.078 19.513 129.494 19.769 129.984 19.961C130.475 20.1317 131.2 20.3557 132.16 20.633C133.44 20.9744 134.486 21.3264 135.296 21.689C136.128 22.0304 136.843 22.5424 137.44 23.225C138.038 23.9077 138.347 24.8144 138.368 25.945C138.368 26.9477 138.091 27.8437 137.536 28.633C136.982 29.4224 136.192 30.041 135.168 30.489C134.166 30.937 132.982 31.161 131.616 31.161ZM150.47 12.953C151.814 12.953 153.009 13.241 154.054 13.817C155.121 14.393 155.953 15.2464 156.55 16.377C157.169 17.5077 157.478 18.873 157.478 20.473V30.873H153.862V21.017C153.862 19.4384 153.467 18.233 152.678 17.401C151.889 16.5477 150.811 16.121 149.446 16.121C148.081 16.121 146.993 16.5477 146.182 17.401C145.393 18.233 144.998 19.4384 144.998 21.017V30.873H141.35V7.19305H144.998V15.289C145.617 14.5424 146.395 13.9664 147.334 13.561C148.294 13.1557 149.339 12.953 150.47 12.953ZM159.955 21.977C159.955 20.2064 160.318 18.6384 161.043 17.273C161.79 15.9077 162.793 14.8517 164.051 14.105C165.331 13.337 166.739 12.953 168.275 12.953C169.662 12.953 170.867 13.2304 171.891 13.785C172.937 14.3184 173.769 14.9904 174.387 15.801V13.241H178.067V30.873H174.387V28.249C173.769 29.081 172.926 29.7744 171.859 30.329C170.793 30.8837 169.577 31.161 168.211 31.161C166.697 31.161 165.31 30.777 164.051 30.009C162.793 29.2197 161.79 28.1317 161.043 26.745C160.318 25.337 159.955 23.7477 159.955 21.977ZM174.387 22.041C174.387 20.825 174.131 19.769 173.619 18.873C173.129 17.977 172.478 17.2944 171.667 16.825C170.857 16.3557 169.982 16.121 169.043 16.121C168.105 16.121 167.23 16.3557 166.419 16.825C165.609 17.273 164.947 17.945 164.435 18.841C163.945 19.7157 163.699 20.761 163.699 21.977C163.699 23.193 163.945 24.2597 164.435 25.177C164.947 26.0944 165.609 26.7984 166.419 27.289C167.251 27.7584 168.126 27.993 169.043 27.993C169.982 27.993 170.857 27.7584 171.667 27.289C172.478 26.8197 173.129 26.137 173.619 25.241C174.131 24.3237 174.387 23.257 174.387 22.041ZM180.683 21.977C180.683 20.2064 181.045 18.6384 181.771 17.273C182.517 15.9077 183.52 14.8517 184.779 14.105C186.059 13.337 187.477 12.953 189.035 12.953C190.187 12.953 191.317 13.209 192.427 13.721C193.557 14.2117 194.453 14.873 195.115 15.705V7.19305H198.795V30.873H195.115V28.217C194.517 29.0704 193.685 29.7744 192.619 30.329C191.573 30.8837 190.368 31.161 189.003 31.161C187.467 31.161 186.059 30.777 184.779 30.009C183.52 29.2197 182.517 28.1317 181.771 26.745C181.045 25.337 180.683 23.7477 180.683 21.977ZM195.115 22.041C195.115 20.825 194.859 19.769 194.347 18.873C193.856 17.977 193.205 17.2944 192.395 16.825C191.584 16.3557 190.709 16.121 189.771 16.121C188.832 16.121 187.957 16.3557 187.147 16.825C186.336 17.273 185.675 17.945 185.163 18.841C184.672 19.7157 184.427 20.761 184.427 21.977C184.427 23.193 184.672 24.2597 185.163 25.177C185.675 26.0944 186.336 26.7984 187.147 27.289C187.979 27.7584 188.853 27.993 189.771 27.993C190.709 27.993 191.584 27.7584 192.395 27.289C193.205 26.8197 193.856 26.137 194.347 25.241C194.859 24.3237 195.115 23.257 195.115 22.041ZM211.746 12.953C213.09 12.953 214.285 13.241 215.33 13.817C216.397 14.393 217.229 15.2464 217.826 16.377C218.445 17.5077 218.754 18.873 218.754 20.473V30.873H215.138V21.017C215.138 19.4384 214.744 18.233 213.954 17.401C213.165 16.5477 212.088 16.121 210.722 16.121C209.357 16.121 208.269 16.5477 207.458 17.401C206.669 18.233 206.274 19.4384 206.274 21.017V30.873H202.626V7.19305H206.274V15.289C206.893 14.5424 207.672 13.9664 208.61 13.561C209.57 13.1557 210.616 12.953 211.746 12.953ZM221.232 21.977C221.232 20.2064 221.594 18.6384 222.32 17.273C223.066 15.9077 224.069 14.8517 225.328 14.105C226.608 13.337 228.016 12.953 229.552 12.953C230.938 12.953 232.144 13.2304 233.168 13.785C234.213 14.3184 235.045 14.9904 235.664 15.801V13.241H239.344V30.873H235.664V28.249C235.045 29.081 234.202 29.7744 233.136 30.329C232.069 30.8837 230.853 31.161 229.488 31.161C227.973 31.161 226.586 30.777 225.328 30.009C224.069 29.2197 223.066 28.1317 222.32 26.745C221.594 25.337 221.232 23.7477 221.232 21.977ZM235.664 22.041C235.664 20.825 235.408 19.769 234.896 18.873C234.405 17.977 233.754 17.2944 232.944 16.825C232.133 16.3557 231.258 16.121 230.32 16.121C229.381 16.121 228.506 16.3557 227.696 16.825C226.885 17.273 226.224 17.945 225.712 18.841C225.221 19.7157 224.976 20.761 224.976 21.977C224.976 23.193 225.221 24.2597 225.712 25.177C226.224 26.0944 226.885 26.7984 227.696 27.289C228.528 27.7584 229.402 27.993 230.32 27.993C231.258 27.993 232.133 27.7584 232.944 27.289C233.754 26.8197 234.405 26.137 234.896 25.241C235.408 24.3237 235.664 23.257 235.664 22.041ZM246.823 15.801C247.356 14.905 248.06 14.2117 248.935 13.721C249.831 13.209 250.887 12.953 252.103 12.953V16.729H251.175C249.746 16.729 248.658 17.0917 247.911 17.817C247.186 18.5424 246.823 19.801 246.823 21.593V30.873H243.175V13.241H246.823V15.801ZM256.352 10.905C255.691 10.905 255.136 10.681 254.688 10.233C254.24 9.78505 254.016 9.23038 254.016 8.56905C254.016 7.90771 254.24 7.35305 254.688 6.90505C255.136 6.45705 255.691 6.23305 256.352 6.23305C256.992 6.23305 257.536 6.45705 257.984 6.90505C258.432 7.35305 258.656 7.90771 258.656 8.56905C258.656 9.23038 258.432 9.78505 257.984 10.233C257.536 10.681 256.992 10.905 256.352 10.905ZM258.144 13.241V30.873H254.496V13.241H258.144Z" fill="#002603"/>
</svg>
